<svg width="720" height="520" viewBox="0 0 720 520" fill="none" xmlns="http://www.w3.org/2000/svg">
  <rect width="720" height="520" rx="40" fill="url(#bg)"/>
  <circle cx="560" cy="108" r="62" fill="#FDE68A" fill-opacity="0.8"/>
  <path d="M56 392C125 330 189 308 258 320C335 333 392 377 471 381C552 385 614 338 664 288V468H56V392Z" fill="#D4E7FF"/>
  <path d="M88 438H624" stroke="#1E293B" stroke-width="10" stroke-linecap="round" stroke-dasharray="16 20"/>
  <path d="M106 216C164 192 212 192 272 220C334 249 399 253 474 228C530 209 580 175 620 142" stroke="#0F766E" stroke-width="12" stroke-linecap="round" stroke-dasharray="1 28"/>
  <circle cx="110" cy="215" r="24" fill="#0F766E"/>
  <circle cx="622" cy="143" r="24" fill="#F97316"/>
  <rect x="160" y="262" width="246" height="102" rx="24" fill="#0F172A"/>
  <rect x="194" y="232" width="154" height="78" rx="18" fill="#F97316"/>
  <rect x="210" y="248" width="60" height="30" rx="10" fill="#FDE68A"/>
  <rect x="280" y="248" width="48" height="30" rx="10" fill="#FDE68A"/>
  <rect x="402" y="286" width="84" height="78" rx="18" fill="#1D4ED8"/>
  <rect x="418" y="300" width="48" height="30" rx="10" fill="#DBEAFE"/>
  <circle cx="232" cy="380" r="34" fill="#0F172A"/>
  <circle cx="232" cy="380" r="15" fill="#F8FAFC"/>
  <circle cx="428" cy="380" r="34" fill="#0F172A"/>
  <circle cx="428" cy="380" r="15" fill="#F8FAFC"/>
  <rect x="470" y="96" width="122" height="86" rx="18" fill="white" fill-opacity="0.88"/>
  <path d="M498 151H560" stroke="#BFDBFE" stroke-width="14" stroke-linecap="round"/>
  <path d="M498 126H542" stroke="#1D4ED8" stroke-width="14" stroke-linecap="round"/>
  <rect x="90" y="92" width="166" height="96" rx="22" fill="white" fill-opacity="0.84"/>
  <path d="M126 151L158 119L183 138L221 104" stroke="#F97316" stroke-width="12" stroke-linecap="round" stroke-linejoin="round"/>
  <circle cx="125" cy="151" r="10" fill="#F97316"/>
  <circle cx="158" cy="119" r="10" fill="#F97316"/>
  <circle cx="183" cy="138" r="10" fill="#F97316"/>
  <circle cx="221" cy="104" r="10" fill="#F97316"/>
  <defs>
    <linearGradient id="bg" x1="36" y1="36" x2="664" y2="484" gradientUnits="userSpaceOnUse">
      <stop stop-color="#F8FAFC"/>
      <stop offset="0.45" stop-color="#EFF6FF"/>
      <stop offset="1" stop-color="#DBEAFE"/>
    </linearGradient>
  </defs>
</svg>
